<svg id="Layer_1" data-name="Layer 1" xmlns="http://www.w3.org/2000/svg" viewBox="0 0 566.93 186.2"><defs><style>.cls-1{fill:#00a3e2;}.cls-2{fill:#8abd24;}.cls-3{fill:#92d2f4;}.cls-4{fill:#fab72d;}.cls-5{fill:#706f6f;}</style></defs><title>DE Africa Logo_Inline</title><rect class="cls-1" x="86.74" y="21.15" width="33.66" height="33.66" transform="translate(43.05 -76.29) rotate(45)"/><rect class="cls-2" x="90.48" y="145.89" width="45.13" height="45.13" transform="translate(138.09 -44.77) rotate(45)"/><rect class="cls-1" x="84.02" y="120.98" width="19.04" height="19.04" transform="translate(105.53 -42.1) rotate(45)"/><rect class="cls-3" x="150.4" y="148.79" width="19.04" height="19.04" transform="translate(144.64 -80.89) rotate(45)"/><rect class="cls-4" x="99.89" y="53.67" width="81.49" height="81.49" transform="translate(93.81 -85.97) rotate(45)"/><rect class="cls-2" x="26.35" y="38.34" width="58.96" height="58.96" transform="translate(50.17 -33.79) rotate(45)"/><path class="cls-1" d="M254.41,63.57c5.57,0,9.58,1.28,12.76,4.12,3.62,3.29,5.63,8.3,5.63,14.15,0,6.41-1.73,11.14-5.29,14.59-3.18,3.06-6.91,4.29-13.15,4.29H238.53V63.57Zm-6.18,29.19h5.35c3.23,0,5.24-.67,6.74-2.34,1.67-1.84,2.62-4.79,2.62-8.24,0-4-1.23-7-3.62-8.8-1.73-1.34-3.51-1.84-6.41-1.84h-4.68Z" transform="translate(-14.14 -14.18)"/><path class="cls-1" d="M286.22,70.25h-8.86V63.57h8.86Zm0,30.47h-8.86V73.82h8.86Z" transform="translate(-14.14 -14.18)"/><path class="cls-1" d="M317.85,97.16c0,4.07-.45,6.13-1.84,8.19-2.23,3.29-6.07,4.9-11.81,4.9-8.13,0-12.42-2.84-13.15-8.63h8.86c.56,2.12,1.84,3,4.46,3,3.62,0,5-1.62,5-6v-3a9.1,9.1,0,0,1-7.8,3.73c-7,0-11.36-5-11.36-13s4.57-13.26,11.59-13.26c3.45,0,5.57,1.11,7.58,4.12v-3.4h8.52Zm-19-11c0,4.18,2,6.68,5.29,6.68s5.29-2.51,5.29-6.57-2-6.46-5.24-6.46S298.85,82.23,298.85,86.19Z" transform="translate(-14.14 -14.18)"/><path class="cls-1" d="M332.09,70.25h-8.86V63.57h8.86Zm0,30.47h-8.86V73.82h8.86Z" transform="translate(-14.14 -14.18)"/><path class="cls-1" d="M353.24,79.67h-5.52v11c0,3.23.5,3.79,3.4,3.79.5,0,1.23-.06,2.12-.11v6.52c-2,.17-3.18.22-4.9.22-4.35,0-6.57-.72-8.08-2.62-1.11-1.45-1.39-2.79-1.39-7V79.67h-4.51V73.82h4.51V65.58h8.86v8.24h5.52Z" transform="translate(-14.14 -14.18)"/><path class="cls-1" d="M374,100.73a11.2,11.2,0,0,1-.44-2.56,12,12,0,0,1-8.8,3.29c-6,0-9.53-3.12-9.53-8.24a7.06,7.06,0,0,1,4.4-6.91,22.84,22.84,0,0,1,6.69-1.56c6.52-.89,7.07-1.11,7.07-3.12s-1.34-3-4.07-3c-3,0-4.12.84-4.57,3.4h-8.3c.33-6,4.68-9,13-9,4.4,0,7.74.78,9.92,2.4s2.73,3.18,2.73,7.13c0,.61,0,.72-.06,3.79,0,1.39,0,1.39-.06,4.46v2.45c0,3.79.22,5.4,1.06,7.41ZM373.47,88c-1.06.67-1.89.95-4.35,1.34-3.79.67-4.9,1.45-4.9,3.57,0,1.95,1.34,3.18,3.57,3.18A5.87,5.87,0,0,0,372.52,94a5.13,5.13,0,0,0,.95-3.62Z" transform="translate(-14.14 -14.18)"/><path class="cls-1" d="M396.06,100.73H387.2V63.57h8.86Z" transform="translate(-14.14 -14.18)"/><path class="cls-1" d="M446.13,71.54H426.08v6.18h18.33v7.63H426.08v7.41h20.5v8H416.39V63.57h29.75Z" transform="translate(-14.14 -14.18)"/><path class="cls-1" d="M468.39,100.73a11.26,11.26,0,0,1-.44-2.56,12,12,0,0,1-8.8,3.29c-6,0-9.53-3.12-9.53-8.24A7.06,7.06,0,0,1,454,86.3a22.84,22.84,0,0,1,6.69-1.56c6.52-.89,7.07-1.11,7.07-3.12s-1.34-3-4.07-3c-3,0-4.12.84-4.57,3.4h-8.3c.33-6,4.68-9,13-9,4.4,0,7.74.78,9.92,2.4s2.73,3.18,2.73,7.13c0,.61,0,.72-.06,3.79,0,1.39,0,1.39-.06,4.46v2.45c0,3.79.22,5.4,1.06,7.41ZM467.83,88c-1.06.67-1.89.95-4.35,1.34-3.79.67-4.9,1.45-4.9,3.57,0,1.95,1.34,3.18,3.57,3.18A5.87,5.87,0,0,0,466.89,94a5.13,5.13,0,0,0,.95-3.62Z" transform="translate(-14.14 -14.18)"/><path class="cls-1" d="M500.45,81.4a11.42,11.42,0,0,0-3.4-.56,6.49,6.49,0,0,0-5.63,2.9A9.92,9.92,0,0,0,490.37,89v11.7h-8.86V73.82H490v4.57C492,74.66,494.55,73,498.45,73a3.35,3.35,0,0,1,2,.45Z" transform="translate(-14.14 -14.18)"/><path class="cls-1" d="M520.16,79.67h-5.52v11c0,3.23.5,3.79,3.4,3.79.5,0,1.23-.06,2.12-.11v6.52c-2,.17-3.18.22-4.9.22-4.35,0-6.57-.72-8.08-2.62-1.11-1.45-1.39-2.79-1.39-7V79.67h-4.51V73.82h4.51V65.58h8.86v8.24h5.52Z" transform="translate(-14.14 -14.18)"/><path class="cls-1" d="M533,77.33a9.76,9.76,0,0,1,8.47-4.23c3.51,0,6.35,1.28,8,3.68,1.17,1.67,1.62,3.62,1.62,7v16.94h-8.86V85.41c0-2.06-.17-2.9-.84-3.68a4.2,4.2,0,0,0-3.4-1.39,4.61,4.61,0,0,0-4.23,2.34c-.56.95-.72,2.06-.72,4.57v13.48H524.1V63.57H533Z" transform="translate(-14.14 -14.18)"/><path class="cls-5" d="M455.79,149.39h-5.47l-2.8-7.75H436l-2.89,7.75h-5.3l11.29-29.2h5.47Zm-12-18.17c-1-2.89-1.4-4-2-6.13-.53,1.84-.83,2.67-2.06,6l-2.41,6.61h8.89Z" transform="translate(-14.14 -14.18)"/><path class="cls-5" d="M479.94,124.57H464.88v7.92H478.1v4.16H464.88v12.74h-5.12v-29.2h20.18Z" transform="translate(-14.14 -14.18)"/><path class="cls-5" d="M498.1,120.19c2.89,0,4.55.35,6.13,1.31a7.54,7.54,0,0,1,3.68,6.79c0,3.55-1.71,6.13-4.82,7.22a4.67,4.67,0,0,1,3.15,2.1c.92,1.62,1,2,1.44,7.22.22,2.32.48,3.46,1,4.16l.31.39h-5.52c-.57-1.05-.66-1.58-.92-5.87-.17-2.71-.92-4.6-2.15-5.34a7.94,7.94,0,0,0-4.25-.83h-6.79v12h-5.12v-29.2Zm-8.71,13.35h6.74c2.54,0,3.81-.22,4.82-.87a4.26,4.26,0,0,0,1.84-3.77,4,4,0,0,0-2.41-4,10.73,10.73,0,0,0-3.59-.48h-7.4Z" transform="translate(-14.14 -14.18)"/><path class="cls-5" d="M519.76,149.39h-5.12v-29.2h5.12Z" transform="translate(-14.14 -14.18)"/><path class="cls-5" d="M551.62,138.23a13.24,13.24,0,0,1-2.89,7.62c-2.41,2.89-5.56,4.25-9.81,4.25-8.19,0-13.61-6.08-13.61-15.32,0-9,5.69-15.28,13.88-15.28a12.25,12.25,0,0,1,9.46,3.85,10.33,10.33,0,0,1,2.76,6.13h-5.08c-.7-3.55-3.41-5.65-7.22-5.65a7.47,7.47,0,0,0-6.92,3.9,14.14,14.14,0,0,0-1.75,7c0,6.74,3.33,11,8.62,11,4.29,0,6.87-2.63,7.49-7.53Z" transform="translate(-14.14 -14.18)"/><path class="cls-5" d="M581.07,149.39H575.6l-2.8-7.75H561.28l-2.89,7.75h-5.3l11.29-29.2h5.47Zm-12-18.17c-1-2.89-1.4-4-2-6.13-.53,1.84-.83,2.67-2.06,6l-2.41,6.61h8.89Z" transform="translate(-14.14 -14.18)"/></svg>